<svg xmlns="http://www.w3.org/2000/svg" viewBox="0 0 64 64" width="64" height="64"><path fill="#72caaf" d="M61.56,35.07c-0.11,2.7-1.26,11.51-11.36,11.51c-3.66,0-6.35-1.58-8.2-3.3 c-0.5-0.46-0.94-0.93-1.32-1.39c-0.19-0.24-0.48-0.38-0.78-0.38c-0.27,0-0.52,0.11-0.71,0.32c-2.03,2.16-5.58,4.75-11,4.75 c-2.69,0-5.46-0.87-8.22-2.56c-0.16-0.1-0.33-0.15-0.51-0.15c-0.27,0-0.55,0.12-0.74,0.33c-0.13,0.15-0.29,0.4-0.25,0.77 c0.24,2.51,0.43,4.3,0.58,5.34c0.09,0.57,0.17,1.08,0.25,1.56c0.27,1.62,0.48,2.9,0.48,4.93c0,3.07-2.23,5.89-4.78,6.18 C14.86,62.99,14.72,63,14.58,63c-2.72,0-5.2-2.96-5.2-6.2c0-1.65,0.12-2.61,0.29-3.94c0.07-0.48,0.14-1.02,0.21-1.67 c0.06-0.55,0.13-1.09,0.2-1.64c0.46-3.73,0.98-7.96,0.98-18.27V5c0-1.1,0.89-2,2-2H19c1.1,0,2,0.9,2,2v25.5 c0,4.09,2.27,8.5,7.25,8.5c6.01,0,8.75-4.54,8.75-8.75V5c0-1.1,0.9-2,2-2h6c1.1,0,2,0.9,2,2v27.97c0,5.69,2.27,6.34,3.97,6.34 c1.92,0,3.18-2.68,3.46-4.59c0.15-1,0.98-1.72,1.98-1.72h3.15c0.55,0,1.07,0.23,1.45,0.62S61.58,34.53,61.56,35.07z"/><path fill="#81d6bb" d="M15,3v53.73c0,3.218-4.69,3.983-5.512,0.872C9.418,57.338,9.38,57.07,9.38,56.8 c0-1.65,0.12-2.61,0.29-3.94c0.07-0.48,0.14-1.02,0.21-1.67c0.06-0.55,0.13-1.09,0.2-1.64c0.46-3.73,0.98-7.96,0.98-18.27V5 c0-1.105,0.895-2,2-2H15z"/><path fill="#8d6c9f" d="M61.731,32.925C61.168,32.337,60.377,32,59.562,32H56.41c-1.498,0-2.746,1.083-2.966,2.574 c-0.261,1.769-1.341,3.739-2.475,3.739c-0.889,0-2.97,0-2.97-5.349V5c0-1.654-1.346-3-3-3h-6c-1.654,0-3,1.346-3,3v25.25 c0,2.878-1.632,7.75-7.75,7.75C25.139,38,22,35.681,22,30.5V5c0-1.654-1.346-3-3-3h-5.944c-1.654,0-3,1.346-3,3v26.284 c0,10.25-0.516,14.444-0.971,18.144c-0.068,0.552-0.134,1.094-0.198,1.643c-0.074,0.645-0.143,1.179-0.206,1.658 c-0.178,1.368-0.307,2.357-0.307,4.067c0,3.837,2.899,7.203,6.203,7.203s6.203-3.366,6.203-7.203c0-2.109-0.228-3.489-0.491-5.087 c-0.078-0.475-0.162-0.982-0.247-1.55c-0.148-1.005-0.349-2.834-0.579-5.286c2.904,1.791,5.845,2.701,8.723,2.701 c5.777,0,9.568-2.755,11.731-5.066c2.694,3.272,6.349,5.066,10.285,5.066c8.727,0,12.105-6.437,12.357-12.46 C62.594,34.307,62.292,33.509,61.731,32.925z M50.203,45.575c-4.331,0-7.192-2.446-8.752-4.327 c-0.403-0.486-0.977-0.734-1.55-0.734c-0.524,0-1.049,0.207-1.443,0.629c-1.772,1.893-5.11,4.433-10.27,4.433 c-3,0-5.704-1.187-7.693-2.41c-0.333-0.205-0.687-0.297-1.032-0.297c-1.103,0-2.107,0.947-1.99,2.193 c0.187,1.985,0.408,4.143,0.592,5.393c0.368,2.469,0.716,3.801,0.716,6.343c0,2.89-2.18,5.203-4.203,5.203 c-2.023,0-4.203-2.314-4.203-5.203c0-2.167,0.223-3.078,0.499-5.495c0.499-4.308,1.182-8.143,1.182-20.017V5c0-0.552,0.448-1,1-1 H19c0.552,0,1,0.448,1,1v25.5c0,4.778,2.776,9.5,8.25,9.5c6.876,0,9.75-5.284,9.75-9.75V5c0-0.552,0.448-1,1-1h6 c0.552,0,1,0.448,1,1v27.965c0,4.91,1.687,7.349,4.97,7.349c2.63,0,4.125-3.222,4.453-5.448C55.497,34.369,55.908,34,56.41,34 h3.152c0.565,0,1.023,0.466,1,1.031C60.443,37.867,59.286,45.575,50.203,45.575z"/><path fill="#8d6c9f" d="M31 23.057h2c.553 0 1-.447 1-1s-.447-1-1-1h-2c-.553 0-1 .447-1 1S30.447 23.057 31 23.057zM31 18.057h2c.553 0 1-.447 1-1s-.447-1-1-1h-2c-.553 0-1 .447-1 1S30.447 18.057 31 18.057zM31 13.057h2c.553 0 1-.447 1-1s-.447-1-1-1h-2c-.553 0-1 .447-1 1S30.447 13.057 31 13.057zM31 8.057h2c.553 0 1-.447 1-1s-.447-1-1-1h-2c-.553 0-1 .447-1 1S30.447 8.057 31 8.057zM31 33.057h2c.553 0 1-.447 1-1s-.447-1-1-1h-2c-.553 0-1 .447-1 1S30.447 33.057 31 33.057zM31 28.057h2c.553 0 1-.447 1-1s-.447-1-1-1h-2c-.553 0-1 .447-1 1S30.447 28.057 31 28.057zM15 14c-.553 0-1 .447-1 1v18c0 .553.447 1 1 1s1-.447 1-1V15C16 14.447 15.553 14 15 14zM15 6c-.553 0-1 .447-1 1v3.917c0 .553.447 1 1 1s1-.447 1-1V7C16 6.447 15.553 6 15 6z"/></svg>